<?xml version="1.0" encoding="UTF-8"?>
<svg width="2030px" height="1379px" viewBox="0 0 2030 1379" version="1.1" xmlns="http://www.w3.org/2000/svg" xmlns:xlink="http://www.w3.org/1999/xlink">
    <title>teal</title>
    <defs>
        <linearGradient x1="-0.00132719528%" y1="49.99804%" x2="100.004982%" y2="49.99804%" id="linearGradient-1">
            <stop stop-color="#CB84DE" offset="0%"></stop>
            <stop stop-color="#C288E0" offset="16%"></stop>
            <stop stop-color="#A892E7" offset="43%"></stop>
            <stop stop-color="#7FA3F1" offset="77%"></stop>
            <stop stop-color="#60B0F9" offset="99%"></stop>
        </linearGradient>
    </defs>
    <g id="Page-2" stroke="none" stroke-width="1" fill="none" fill-rule="evenodd">
        <g id="teal" transform="translate(0.669137, 0.150577)" fill-rule="nonzero">
            <path d="M442.899133,545.236347 C413.752242,562.068021 384.422038,577.04821 355.275148,592.53335 C171.044803,690.157056 -85.961111,817.741141 28.2433715,1060.45387 C76.6382083,1162.79045 196.892045,1224.22606 317.145882,1239.87951 C437.39972,1255.53297 559.303381,1232.47358 678.274021,1208.74092 C909.004961,1162.50992 1138.57491,1111.45384 1366.98388,1055.57269 C1492.18719,1024.77072 1619.40695,991.780644 1727.9287,926.642068 C1836.45046,861.503492 1925.54095,758.325334 1936.72309,640.503619 C1952.30476,476.226486 1822.51861,333.662212 1698.41518,214.662281 C1590.26006,110.810855 1463.59024,2.91982848 1308.14016,0.058443991 C1152.69007,-2.8029405 1021.80404,99.8702676 918.598382,205.573177 C788.262287,339.889931 617.597161,448.959175 442.899133,545.236347 Z" id="Path" fill="#5FDDC5"></path>
            <path d="M580.15598,25.6054025 C382.236545,64.060108 226.500868,203.909647 180.663835,384.346531 C132.878569,559.023286 174.98819,743.758203 235.589428,915.249873 C291.430447,1076.01284 374.734263,1243.64888 536.032421,1325.11999 C711.428148,1413.63182 928.567325,1375.41081 1120.8069,1323.61127 C1337.91539,1264.93055 1550.0128,1191.69932 1755.38058,1104.51096 C1887.56818,1048.18525 2036.23345,957.158884 2028.72695,823.888231 C2023.60056,731.353136 1939.74749,657.593278 1849.48643,615.684268 C1759.22538,573.775257 1658.34537,553.491296 1568.99974,509.905926 C1419.23595,436.984248 1315.79275,306.228136 1198.61816,194.24726 C1038.40405,43.5599087 804.304532,-20.2741943 580.15598,25.6054025 Z" id="Path" fill="url(#linearGradient-1)"></path>
        </g>
    </g>
</svg>